<svg xmlns="http://www.w3.org/2000/svg" width="100" height="100" viewBox="0 0 100 100"
 xmlns:xlink="http://www.w3.org/1999/xlink">
 
 <g id="snowflake">
  <polyline points="15,84 17,78 29,68 20,66 37,60 35,56 47,51 34,54 34,51 17,58 22,51 6,53 1,50 6,47 22,49 17,42 34,49 34,45 47,49 35,43 37,39 20,33 29,31 17,21 15,15 21,17 31,30 32,20 39,38 42,35 49,48 45,35 49,34 41,17 49,23 47,7 50,1 53,7 51,23 59,17 51,34 55,35 51,48 57,35 60,38 67,20 68,30 78,17 84,15 82,21 70,31 79,33 62,39 64,43 53,49 65,45 66,49 83,42 78,49 94,47 99,50 94,53 78,51 83,58 66,51 65,54 53,51 64,56 62,60 79,66 70,68 82,78 84,84 78,82 68,69 67,79 60,61 57,64 51,52 55,65 51,66 59,83 51,77 53,93 50,99 47,93 49,77 41,83 49,66 45,65 49,52 42,64 39,61 32,79 31,69 21,82 15,84 "/>
 </g>
</svg>
