<svg xmlns="http://www.w3.org/2000/svg" width="100" height="100" viewBox="0 0 100 100"
 xmlns:xlink="http://www.w3.org/1999/xlink">
 
 <g id="snowflake">
  <polyline points="15,84 17,78 29,68 20,66 37,60 35,56 47,51 34,54 34,51 17,58 22,51 6,53 1,50 6,47 22,49 17,42 34,49 34,45 47,49 35,43 37,39 20,33 29,31 17,21 15,15 21,17 31,30 32,20 39,38 42,35 49,48 45,35 49,34 41,17 49,23 47,7 50,1 53,7 51,23 59,17 51,34 55,35 51,48 57,35 60,38 67,20 68,30 78,17 84,15 82,21 70,31 79,33 62,39 64,43 53,49 65,45 66,49 83,42 78,49 94,47 99,50 94,53 78,51 83,58 66,51 65,54 53,51 64,56 62,60 79,66 70,68 82,78 84,84 78,82 68,69 67,79 60,61 57,64 51,52 55,65 51,66 59,83 51,77 53,93 50,99 47,93 49,77 41,83 49,66 45,65 49,52 42,64 39,61 32,79 31,69 21,82 15,84 "/>
 </g>
 
 <g id="arrowright">
  <path d="M33 2l0 0c-12,0 -18,15 -9,24l16 14c6,5 6,15 0,20l-16 14c-9,8 -4,24 9,24l0 0c3,0 6,-1 9,-3l39 -34c6,-5 6,-15 0,-20l-39 -34c-2,-2 -6,-3 -9,-3z"/>
  <path d="M31 50c0,5 -4,9 -9,9 -5,0 -9,-4 -9,-9 0,-5 4,-9 9,-9 5,0 9,4 9,9z"/>
 </g>
 
 <g id="calendar">
  <path d="M18 37l65 0c2,0 4,1 4,3l0 45c0,2 -2,3 -4,3l-65 0c-2,0 -4,-1 -4,-3l0 -45c0,-2 2,-3 4,-3zm-6 -25c-5,0 -9,4 -9,9l0 69c0,5 4,9 9,9l76 0c5,0 9,-4 9,-9l0 -69c0,-5 -4,-9 -9,-9l-3 0 0 6c0,4 -3,7 -7,7 -4,0 -7,-3 -7,-7l0 -6 -43 0 0 6c0,4 -3,7 -7,7 -4,0 -7,-3 -7,-7l0 -6 -3 0z"/>
  <path d="M19 4l0 8 0 6c0,2 1,3 3,3 2,0 3,-1 3,-3l0 -6 0 -8c0,-2 -1,-3 -3,-3 -2,0 -3,1 -3,3z"/>
  <path d="M75 4l0 8 0 6c0,2 1,3 3,3 2,0 3,-1 3,-3l0 -6 0 -8c0,-2 -1,-3 -3,-3 -2,0 -3,1 -3,3z"/>
  <polygon points="38,60 38,43 20,43 20,60 "/>
  <polygon points="59,60 59,43 42,43 42,60 "/>
  <polygon points="38,82 38,64 20,64 20,82 "/>
  <polygon points="59,82 59,64 42,64 42,82 "/>
  <polygon points="82,60 82,43 65,43 65,60 "/>
  <polygon points="82,82 82,64 65,64 65,82 "/>
 </g>
  
 <g id="info">
  <path d="M32 42l0 9c0,1 1,2 1,3 1,1 2,1 3,1l3 0 0 27 -3 0c-1,0 -2,0 -3,1 -1,1 -1,2 -1,3l0 9c0,2 2,4 4,4l29 0c2,0 4,-2 4,-4l0 -9c0,-2 -2,-4 -4,-4l-3 0 0 -40c0,-2 -2,-4 -4,-4l-21 0c-2,0 -4,2 -4,4z"/>
  <circle cx="50" cy="16" r="13"/>
 </g>
 
 <g id="refresh">
 <path class="fil0" d="M53 9l0 -8c0,0 0,-1 0,-1 0,0 -1,0 -1,0l-24 14c0,0 -1,0 -1,1 0,1 1,1 1,1l24 14c0,0 0,0 1,0 0,0 0,-1 0,-1l0 -7c14,2 26,14 26,28 0,16 -13,29 -29,29 -16,0 -29,-13 -29,-29 0,-4 1,-9 3,-12 0,0 2,-5 -3,-8 -5,-2 -8,0 -8,1 -3,6 -5,12 -5,19 0,23 18,41 41,41 23,0 41,-18 41,-41 0,-22 -17,-40 -38,-41z"/>  
 </g>
</svg>
